<svg xmlns="http://www.w3.org/2000/svg" version="1.1" viewBox="-1 -2 24 24">
    <path d="M13.9204764,17.8389202 L3.8365999,17.8389202 C2.71616918,17.8389202 1.70778152,16.8305326 1.70778152,15.5980588 L1.70778152,3.83353621 C1.70778152,2.71310549 2.71616915,1.59267478 3.8365999,1.59267478 L19.7467161,1.59267478 C20.8671468,1.59267478 21.8755345,2.60106241 21.8755345,3.83353621 L21.8755345,4.84192385 C21.8755345,5.29009612 22.2116637,5.62622534 22.659836,5.62622537 C23.1080083,5.62622537 23.4441375,5.29009615 23.4441375,4.84192385 L23.4441375,3.83353621 C23.4441375,1.81676091 21.6514483,0.0240717527 19.7467161,0.0240717527 L3.8365999,0.0240717527 C1.8198246,0.0240717527 0.0271354392,1.81676091 0.0271354392,3.83353621 L0.0271354392,15.7101019 C0.0271354392,17.7268772 1.8198246,19.5195663 3.72455681,19.5195663 L13.8084333,19.5195663 C14.2566056,19.5195663 14.5927348,19.1834371 14.5927348,18.7352648 C14.7047779,18.1750494 14.3686487,17.8389202 13.9204764,17.8389202 L13.9204764,17.8389202 Z M22.7718791,8.09117295 C19.52263,8.09117295 16.8335962,10.8922497 16.8335962,14.1414988 C16.8335962,17.502791 19.52263,20.1918247 22.7718791,20.1918247 C26.0211282,20.1918247 28.7101619,17.3907479 28.7101619,14.1414988 C28.822205,10.8922497 26.1331712,8.09117295 22.7718791,8.09117295 Z M22.7718791,18.6232217 C20.4189746,18.6232217 18.4021993,16.6064464 18.4021993,14.1414988 C18.4021993,11.6765513 20.4189746,9.65977597 22.7718791,9.65977597 C25.1247836,9.65977597 27.1415589,11.6765513 27.1415589,14.1414988 C27.253602,16.6064464 25.2368267,18.6232217 22.7718791,18.6232217 Z M18.1781131,5.62622537 C18.1781131,5.1780531 17.8419839,4.84192385 17.3938116,4.84192385 L10.3350981,4.84192385 C9.88692579,4.84192385 9.55079657,5.17805307 9.55079657,5.62622537 C9.55079657,6.07439765 9.88692579,6.41052687 10.3350981,6.41052687 L17.5058547,6.41052687 C17.8419839,6.41052687 18.1781131,6.07439765 18.1781131,5.62622537 Z M7.42197819,6.41052687 L7.98219355,6.41052687 C8.43036582,6.41052687 8.76649504,6.07439765 8.76649504,5.62622537 C8.76649504,5.1780531 8.43036582,4.84192385 7.98219355,4.84192385 L7.42197819,4.84192385 C6.97380591,4.84192385 6.63767669,5.17805307 6.63767669,5.62622537 C6.63767669,6.07439765 6.97380591,6.41052687 7.42197819,6.41052687 L7.42197819,6.41052687 Z M7.3099351,10.4440775 L14.3686487,10.4440775 C14.8168209,10.4440775 15.1529502,10.1079482 15.1529502,9.65977597 C15.1529502,9.2116037 14.8168209,8.87547444 14.3686487,8.87547444 L7.3099351,8.87547444 C6.86176283,8.87547444 6.52563361,9.21160366 6.52563361,9.65977597 C6.52563361,10.1079482 6.86176283,10.4440775 7.3099351,10.4440775 L7.3099351,10.4440775 Z M5.62928903,9.77181902 C5.62928903,9.32364675 5.29315981,8.98751753 4.84498753,8.98751753 L4.28477217,8.98751753 C3.8365999,8.98751753 3.50047068,9.32364675 3.50047068,9.77181902 C3.50047068,10.2199913 3.8365999,10.5561205 4.28477217,10.5561205 L4.84498753,10.5561205 C5.29315981,10.4440774 5.62928903,10.1079482 5.62928903,9.77181902 L5.62928903,9.77181902 Z M15.3770363,13.1331112 L8.31832277,13.1331112 C7.8701505,13.1331112 7.53402127,13.4692404 7.53402127,13.9174127 C7.53402127,14.365585 7.8701505,14.7017142 8.31832277,14.7017142 L15.3770363,14.7017142 C15.8252086,14.7017142 16.1613378,14.365585 16.1613378,13.9174127 C16.1613378,13.4692404 15.8252086,13.1331112 15.3770363,13.1331112 Z M5.29315981,14.7017142 L5.8533752,14.7017142 C6.30154747,14.7017142 6.63767669,14.365585 6.63767669,13.9174127 C6.63767669,13.4692404 6.30154747,13.1331112 5.8533752,13.1331112 L5.29315981,13.1331112 C4.84498753,13.1331112 4.50885831,13.4692404 4.50885831,13.9174127 C4.50885831,14.365585 4.95703058,14.7017142 5.29315981,14.7017142 Z" id="hide-danmaku-icon-rect"></path>
    <rect id="hide-danmaku-icon-line" transform="translate(23.000000, 14.500000) scale(-1, 1) rotate(45.000000) translate(-23.000000, -14.500000) " x="22" y="9" width="2" height="11" rx="1"></rect>
</svg>