<svg xmlns="http://www.w3.org/2000/svg" version="1.1" viewBox="0 3 24 24">
    <path d="M14.9204764,22.8389202 L4.8365999,22.8389202 C3.71616918,22.8389202 2.70778152,21.8305326 2.70778152,20.5980588 L2.70778152,8.83353621 C2.70778152,7.71310549 3.71616915,6.59267478 4.8365999,6.59267478 L20.7467161,6.59267478 C21.8671468,6.59267478 22.8755345,7.60106241 22.8755345,8.83353621 L22.8755345,9.84192385 C22.8755345,10.2900961 23.2116637,10.6262253 23.659836,10.6262254 C24.1080083,10.6262254 24.4441375,10.2900962 24.4441375,9.84192385 L24.4441375,8.83353621 C24.4441375,6.81676091 22.6514483,5.02407175 20.7467161,5.02407175 L4.8365999,5.02407175 C2.8198246,5.02407175 1.02713544,6.81676091 1.02713544,8.83353621 L1.02713544,20.7101019 C1.02713544,22.7268772 2.8198246,24.5195663 4.72455681,24.5195663 L14.8084333,24.5195663 C15.2566056,24.5195663 15.5927348,24.1834371 15.5927348,23.7352648 C15.7047779,23.1750494 15.3686487,22.8389202 14.9204764,22.8389202 L14.9204764,22.8389202 Z M19.1781131,10.6262254 C19.1781131,10.1780531 18.8419839,9.84192385 18.3938116,9.84192385 L11.3350981,9.84192385 C10.8869258,9.84192385 10.5507966,10.1780531 10.5507966,10.6262254 C10.5507966,11.0743976 10.8869258,11.4105269 11.3350981,11.4105269 L18.5058547,11.4105269 C18.8419839,11.4105269 19.1781131,11.0743976 19.1781131,10.6262254 Z M8.42197819,11.4105269 L8.98219355,11.4105269 C9.43036582,11.4105269 9.76649504,11.0743976 9.76649504,10.6262254 C9.76649504,10.1780531 9.43036582,9.84192385 8.98219355,9.84192385 L8.42197819,9.84192385 C7.97380591,9.84192385 7.63767669,10.1780531 7.63767669,10.6262254 C7.63767669,11.0743976 7.97380591,11.4105269 8.42197819,11.4105269 L8.42197819,11.4105269 Z M8.3099351,15.4440775 L15.3686487,15.4440775 C15.8168209,15.4440775 16.1529502,15.1079482 16.1529502,14.659776 C16.1529502,14.2116037 15.8168209,13.8754744 15.3686487,13.8754744 L8.3099351,13.8754744 C7.86176283,13.8754744 7.52563361,14.2116037 7.52563361,14.659776 C7.52563361,15.1079482 7.86176283,15.4440775 8.3099351,15.4440775 L8.3099351,15.4440775 Z M6.62928903,14.771819 C6.62928903,14.3236467 6.29315981,13.9875175 5.84498753,13.9875175 L5.28477217,13.9875175 C4.8365999,13.9875175 4.50047068,14.3236467 4.50047068,14.771819 C4.50047068,15.2199913 4.8365999,15.5561205 5.28477217,15.5561205 L5.84498753,15.5561205 C6.29315981,15.4440774 6.62928903,15.1079482 6.62928903,14.771819 L6.62928903,14.771819 Z M16.3770363,18.1331112 L9.31832277,18.1331112 C8.8701505,18.1331112 8.53402127,18.4692404 8.53402127,18.9174127 C8.53402127,19.365585 8.8701505,19.7017142 9.31832277,19.7017142 L16.3770363,19.7017142 C16.8252086,19.7017142 17.1613378,19.365585 17.1613378,18.9174127 C17.1613378,18.4692404 16.8252086,18.1331112 16.3770363,18.1331112 Z M6.29315981,19.7017142 L6.8533752,19.7017142 C7.30154747,19.7017142 7.63767669,19.365585 7.63767669,18.9174127 C7.63767669,18.4692404 7.30154747,18.1331112 6.8533752,18.1331112 L6.29315981,18.1331112 C5.84498753,18.1331112 5.50885831,18.4692404 5.50885831,18.9174127 C5.50885831,19.365585 5.95703058,19.7017142 6.29315981,19.7017142 Z" id="show-danmaku-icon-rect" fill="#FFFFFF"></path>
    <path d="M23.7718791,13.0911729 C27.1331712,13.0911729 29.822205,15.8922497 29.7101619,19.1414988 C29.7101619,22.3907479 27.0211282,25.1918247 23.7718791,25.1918247 C20.52263,25.1918247 17.8335962,22.502791 17.8335962,19.1414988 C17.8335962,15.8922497 20.52263,13.0911729 23.7718791,13.0911729 Z M23.7718791,14.659776 C21.4189746,14.659776 19.4021993,16.6765513 19.4021993,19.1414988 C19.4021993,21.6064464 21.4189746,23.6232217 23.7718791,23.6232217 C26.2368267,23.6232217 28.253602,21.6064464 28.1415589,19.1414988 C28.1415589,16.6765513 26.1247836,14.659776 23.7718791,14.659776 Z" id="show-danmaku-icon-circle" fill="#3093FF"></path>
    <path d="M27.3572574,17.3488097 C27.0211281,17.0126805 26.5729559,17.0126805 26.2368267,17.3488097 L23.4357499,20.1498865 L21.7551038,18.4692404 C21.4189746,18.1331112 20.9708023,18.1331112 20.6346731,18.4692404 C20.2985438,18.8053696 20.2985438,19.2535419 20.6346731,19.5896711 L22.8755345,21.8305326 C23.2116637,22.1666618 23.659836,22.1666618 23.9959652,21.8305326 L27.3572574,18.4692404 C27.6933866,18.1331112 27.6933866,17.6849389 27.3572574,17.3488097 L27.3572574,17.3488097 Z" id="show-danmaku-icon-check" fill="#3093FF"></path>
</svg>