<svg t="1596704191542" class="icon" viewBox="0 0 900 900" version="1.1" xmlns="http://www.w3.org/2000/svg" p-id="6505"
    width="30" height="30">
    <path
        d="M191.044267 400.827733c43.178667-73.386667 35.84-124.177067 35.498666-126.122666a37.922133 37.922133 0 0 1 13.4144-36.2496c10.581333-8.465067 25.6-10.24 37.546667-4.676267 2.594133 1.194667 63.2832 29.457067 86.596267 112.708267 3.1744 11.3664 5.973333 23.552 8.192 36.386133 3.515733-6.621867 6.485333-12.629333 8.977066-18.056533 58.094933-128.4096 32.085333-279.825067 31.0272-286.208a37.888 37.888 0 0 1 11.229867-34.7136 36.6592 36.6592 0 0 1 34.816-8.362667c7.509333 2.1504 184.7296 56.661333 226.542933 285.9008 13.858133 76.049067 6.826667 147.217067-1.4336 192.989867a206.165333 206.165333 0 0 0 28.501334-37.0688c22.357333-35.9424 39.3216-101.034667 39.492266-101.819734 3.857067-14.7456 15.940267-25.6 30.958934-27.579733 15.018667-1.536 29.354667 5.870933 36.420266 18.875733 2.833067 5.085867 68.5056 124.996267 68.5056 237.7728 0 212.309333-156.330667 366.421333-371.712 366.421334-218.999467 0-377.9584-154.112-377.9584-366.421334 0-87.586133 11.946667-133.3248 53.384534-203.776z"
        fill="#FB7431" p-id="6506"></path>
</svg>