<svg t="1594778864633" class="icon" viewBox="0 0 1024 1024" version="1.1" xmlns="http://www.w3.org/2000/svg" p-id="6343" xmlns:xlink="http://www.w3.org/1999/xlink" width="200" height="200">
    <defs>
        <style type="text/css"/>
    </defs>
    <path d="M142.677333 368.493714C115.565714 368.493714 97.52381 350.45181 97.52381 323.291429V142.677333C97.52381 115.565714 115.565714 97.52381 142.677333 97.52381H323.291429c27.111619 0 45.202286 18.041905 45.202285 45.153523s-18.041905 45.153524-45.202285 45.153524H187.830857V323.291429c0 27.111619-18.041905 45.202286-45.153524 45.202285z m722.553905 0c-27.111619 0-45.153524-18.041905-45.153524-45.202285V187.830857h-135.509333c-27.062857 0-45.153524-18.041905-45.153524-45.153524S657.456762 97.52381 684.617143 97.52381h180.662857c27.062857 0 45.153524 18.041905 45.153524 45.153523V323.291429c0 27.111619-18.041905 45.202286-45.153524 45.202285zM323.291429 910.384762H142.677333c-27.111619 0-45.153524-18.041905-45.153523-45.153524v-180.662857c0-27.062857 18.041905-45.153524 45.153523-45.153524s45.153524 18.041905 45.153524 45.153524v135.509333H323.291429c27.111619 0 45.202286 18.041905 45.202285 45.153524 0 27.062857-18.041905 45.153524-45.202285 45.153524z m541.939809 0h-180.662857c-27.062857 0-45.153524-18.041905-45.153524-45.153524s18.041905-45.153524 45.153524-45.153524h135.509333v-135.509333c0-27.062857 18.041905-45.153524 45.153524-45.153524 27.062857 0 45.153524 18.041905 45.153524 45.153524v180.662857c0 27.062857-18.041905 45.153524-45.153524 45.153524z" fill="#FFFFFF" p-id="6344"/>
</svg>