<svg t="1596704108968" class="icon" viewBox="0 0 1024 1024" version="1.1" xmlns="http://www.w3.org/2000/svg" p-id="6377"
    width="100" height="100">
    <path
        d="M901.193143 384.438857H645.997714C744.886857 19.163429 577.828571 0.512 577.828571 0.512c-70.729143 0-56.100571 55.954286-61.44 65.316571 0 178.614857-189.732571 318.610286-189.732571 318.610286v506.514286c0 49.956571 68.169143 68.022857 94.866286 68.022857h383.488c36.059429 0 65.462857-94.646857 65.462857-94.646857 94.866286-322.56 94.866286-418.596571 94.866286-418.596572 0-66.633143-64.146286-61.293714-64.146286-61.293714zM221.915429 384.585143H69.12c-31.597714 0-32.036571 31.012571-32.036571 31.012571l31.524571 510.829715c0 32.475429 32.621714 32.475429 32.621714 32.475428h132.242286c27.574857 0 27.282286-21.504 27.282286-21.504V423.277714c0-39.204571-38.765714-38.765714-38.765715-38.765714z"
        fill="white" p-id="6378"></path>
</svg>