<svg xmlns="http://www.w3.org/2000/svg" version="1.1" viewBox="0 -5 21 32">
    <path d="M13.728,1.272 L13.728,20.728 C13.728,21.0266667 13.6106667,21.2933333 13.376,21.528 C13.1413333,21.7626667 12.8746667,21.8693333 12.576,21.848 C12.2773333,21.8266667 12.0106667,21.72 11.776,21.528 L5.824,15.576 L1.152,15.576 C0.832,15.576 0.565333333,15.4586667 0.352,15.224 C0.138666667,14.9893333 0.0213333333,14.7226667 3.19744231e-14,14.424 L3.19744231e-14,7.576 C3.19744231e-14,7.256 0.117333333,6.98933333 0.352,6.776 C0.586666667,6.56266667 0.853333333,6.44533333 1.152,6.424 L5.824,6.424 L11.776,0.472 C11.9893333,0.258666667 12.256,0.152 12.576,0.152 C12.896,0.152 13.1626667,0.258666667 13.376,0.472 C13.5893333,0.685333333 13.7066667,0.952 13.728,1.272 Z" id="voice"></path>
                <path d="M20.3915228,9.18443523 L22.1998893,7.37478982 C22.6996091,6.87542323 23.5095286,6.87570953 24.0088952,7.3754293 C24.5082618,7.87514907 24.5079755,8.6850686 24.0082558,9.18443523 L22.2011682,10.9928017 L24.0095347,12.8011682 C24.3419936,13.1222676 24.4753268,13.5977676 24.3582876,14.0449092 C24.2412484,14.4920508 23.8920508,14.8412484 23.4449092,14.9582876 C22.9977676,15.0753268 22.5222676,14.9419936 22.2011682,14.6095347 L20.3928017,12.8011682 L18.5844352,14.6095347 C18.0850686,15.1092545 17.2751491,15.1095408 16.7754293,14.6101741 C16.2757095,14.1108075 16.2754232,13.300888 16.7747898,12.8011682 L18.5844352,10.9928017 L16.7747898,9.18443523 C16.2750701,8.68471545 16.2750701,7.87450961 16.7747898,7.37478984 C17.2745096,6.87507006 18.0847154,6.87507005 18.5844352,7.37478982 L20.3928017,9.18443523 L20.3915228,9.18443523 Z" id="cross"></path>
</svg>